<svg width="154" height="62" viewBox="0 0 154 62" fill="none" xmlns="http://www.w3.org/2000/svg">
<path d="M29.316 30H34.992V52H29.316V49.404C27.6147 51.5453 25.224 52.616 22.144 52.616C19.2107 52.616 16.688 51.5013 14.576 49.272C12.4933 47.0133 11.452 44.256 11.452 41C11.452 37.744 12.4933 35.0013 14.576 32.772C16.688 30.5133 19.2107 29.384 22.144 29.384C25.224 29.384 27.6147 30.4547 29.316 32.596V30ZM18.844 45.488C19.988 46.632 21.44 47.204 23.2 47.204C24.96 47.204 26.412 46.632 27.556 45.488C28.7293 44.3147 29.316 42.8187 29.316 41C29.316 39.1813 28.7293 37.7 27.556 36.556C26.412 35.3827 24.96 34.796 23.2 34.796C21.44 34.796 19.988 35.3827 18.844 36.556C17.7 37.7 17.128 39.1813 17.128 41C17.128 42.8187 17.7 44.3147 18.844 45.488ZM41.635 27.36C40.6963 27.36 39.875 27.0227 39.171 26.348C38.4963 25.644 38.159 24.8227 38.159 23.884C38.159 22.9453 38.4963 22.124 39.171 21.42C39.875 20.716 40.6963 20.364 41.635 20.364C42.603 20.364 43.4243 20.716 44.099 21.42C44.803 22.124 45.155 22.9453 45.155 23.884C45.155 24.8227 44.803 25.644 44.099 26.348C43.4243 27.0227 42.603 27.36 41.635 27.36ZM38.819 52V30H44.495V52H38.819ZM54.0461 33.784C54.5741 32.376 55.4394 31.32 56.6421 30.616C57.8741 29.912 59.2381 29.56 60.7341 29.56V35.896C59.0034 35.6907 57.4487 36.0427 56.0701 36.952C54.7207 37.8613 54.0461 39.372 54.0461 41.484V52H48.3701V30H54.0461V33.784ZM74.9657 29.384C77.371 29.384 79.351 30.1907 80.9057 31.804C82.4897 33.4173 83.2817 35.6467 83.2817 38.492V52H77.6057V39.196C77.6057 37.7293 77.2097 36.6147 76.4177 35.852C75.6257 35.06 74.5697 34.664 73.2497 34.664C71.783 34.664 70.6097 35.1187 69.7297 36.028C68.8497 36.9373 68.4097 38.3013 68.4097 40.12V52H62.7337V21.2H68.4097V32.464C69.7883 30.4107 71.9737 29.384 74.9657 29.384ZM92.4842 33.784C93.0122 32.376 93.8775 31.32 95.0802 30.616C96.3122 29.912 97.6762 29.56 99.1722 29.56V35.896C97.4415 35.6907 95.8869 36.0427 94.5082 36.952C93.1589 37.8613 92.4842 39.372 92.4842 41.484V52H86.8082V30H92.4842V33.784ZM103.975 51.472C103.242 52.2053 102.362 52.572 101.335 52.572C100.308 52.572 99.4284 52.2053 98.6951 51.472C97.9617 50.7387 97.5951 49.8587 97.5951 48.832C97.5951 47.8053 97.9617 46.9253 98.6951 46.192C99.4284 45.4587 100.308 45.092 101.335 45.092C102.362 45.092 103.242 45.4587 103.975 46.192C104.708 46.9253 105.075 47.8053 105.075 48.832C105.075 49.8587 104.708 50.7387 103.975 51.472ZM128.641 30V34.972C126.793 31.672 123.405 29.516 119.181 29.516C112.933 29.516 107.785 34.488 107.785 41C107.785 47.512 112.933 52.484 119.181 52.484C123.405 52.484 126.793 50.328 128.641 47.028V52H130.885V30H128.641ZM119.357 50.372C114.121 50.372 110.029 46.236 110.029 41C110.029 35.764 114.121 31.628 119.357 31.628C124.593 31.628 128.641 35.764 128.641 41C128.641 46.236 124.593 50.372 119.357 50.372ZM137.42 24.676C138.388 24.676 139.18 23.884 139.18 22.916C139.18 21.992 138.388 21.2 137.42 21.2C136.452 21.2 135.66 21.992 135.66 22.916C135.66 23.884 136.452 24.676 137.42 24.676ZM136.32 52H138.52V30H136.32V52Z" fill="black"/>
</svg>
